# xmcd
#
# Track frame offsets:
#	150
#	12793
#	24269
#	38141
#	49566
#	60945
#	73863
#	87163
#	98728
#	109128
#	125498
#	139207
#	154628
#	165627
#	179855
#	193271
#	204702
#
# Disc length: 2914 seconds
#
# Revision: 0
# Processed by: cddbd v1.5.2PL0 Copyright (c) Steve Scherf et al.
# Submitted via: EasyCDDAExtractor 11.5.0.1
#
DISCID=e70b6011
DTITLE=B B King - The essential collection
DYEAR=2007
DGENRE=Blues
TTITLE0=Please Love Me
TTITLE1=Shake It Up And Go
TTITLE2=She Don't Move Me No More
TTITLE3=She's A Mean Woman
TTITLE4=She's Dynamite
TTITLE5=Some Day, Somewhere
TTITLE6=Story From My Heart And Soul
TTITLE7=Take A Swing With Me (Love You Baby)
TTITLE8=That Ain't The Way To Do It
TTITLE9=The Other Night Blues
TTITLE10=Three O'clock Blues
TTITLE11=Walkin' And Cryin'
TTITLE12=When Your Baby Packs Up And Goes
TTITLE13=Why Did You Leave Me
TTITLE14=Woke Up This Morning
TTITLE15=You Didn't Want Me
TTITLE16=You Know I Love You
EXTD=
EXTT0=
EXTT1=
EXTT2=
EXTT3=
EXTT4=
EXTT5=
EXTT6=
EXTT7=
EXTT8=
EXTT9=
EXTT10=
EXTT11=
EXTT12=
EXTT13=
EXTT14=
EXTT15=
EXTT16=
PLAYORDER=
